# xmcd CD database file
#
# Track frame offsets:
#	150
#	20280
#	43445
#	63809
#	87635
#	105139
#	126080
#	150139
#	169572
#	185769
#
# Disc length: 2802 seconds
#
# Revision: 0
# Processed by: cddbd v1.5.2PL0 Copyright (c) Steve Scherf et al.
# Submitted via: CDex 1.70beta2
#
DISCID=730af00a
DTITLE=Witt, Bruce - Little Old Creek
DYEAR=2003
DGENRE=Country
TTITLE0=Little Old Creek
TTITLE1=Mountain Music
TTITLE2=On Line Dot Com
TTITLE3=Same Old Crazy
TTITLE4=Liza Ann
TTITLE5=Ten Long Miles of Dirt Road
TTITLE6=Wildcat Woman
TTITLE7=Travelling Farrier
TTITLE8=Forty Years of Living
TTITLE9=Little Rock Cafe
EXTD=YEAR: 2003
EXTT0=
EXTT1=
EXTT2=
EXTT3=
EXTT4=
EXTT5=
EXTT6=
EXTT7=
EXTT8=
EXTT9=
PLAYORDER=
